# xmcd
#
# Track frame offsets:
#	150
#	29644
#	60525
#	82331
#	112495
#	140560
#	181589
#	223471
#	243895
#
# Disc length: 3674 seconds
#
# Revision: 0
# Processed by: cddbd v1.5.2PL0 Copyright (c) Steve Scherf et al.
# Submitted via: EasyCDDAExtractor 11.0.3.2
#
DISCID=8d0e5809
DTITLE=Gail Storm - Live at the Vail-Leavitt
DYEAR=2007
DGENRE=Blues
TTITLE0=Route 66
TTITLE1=One Meatball
TTITLE2=Wham (Re Bop Boom Bam)
TTITLE3=Woman Be Wise
TTITLE4=Fool's Paradise
TTITLE5=I Ain't Got Nithin' But The Blues
TTITLE6=Peel Me A Grape
TTITLE7=Mess Around
TTITLE8=Fool's Night Out
EXTD=
EXTT0=
EXTT1=
EXTT2=
EXTT3=
EXTT4=
EXTT5=
EXTT6=
EXTT7=
EXTT8=
PLAYORDER=
